<svg width="24" height="24" viewBox="0 0 24 24" fill="none" xmlns="http://www.w3.org/2000/svg">
<path d="M2.64844 12C2.64844 6.84357 6.84357 2.64844 12 2.64844C17.1564 2.64844 21.3516 6.84357 21.3516 12C21.3516 17.1564 17.1564 21.3516 12 21.3516C6.84357 21.3516 2.64844 17.1564 2.64844 12ZM12.6901 6.65466C12.4858 6.51817 12.2457 6.44531 12 6.44531C11.6706 6.44531 11.3546 6.57619 11.1216 6.80914C10.8887 7.0421 10.7578 7.35805 10.7578 7.6875C10.7578 7.93318 10.8307 8.17335 10.9672 8.37762C11.1037 8.5819 11.2977 8.74111 11.5246 8.83513C11.7516 8.92915 12.0014 8.95375 12.2423 8.90582C12.4833 8.85789 12.7046 8.73958 12.8784 8.56586C13.0521 8.39214 13.1704 8.1708 13.2183 7.92984C13.2662 7.68888 13.2416 7.43912 13.1476 7.21214C13.0536 6.98516 12.8944 6.79115 12.6901 6.65466ZM9.5781 16.8594C9.72315 17.0045 9.91987 17.0859 10.125 17.0859H14.25C14.4551 17.0859 14.6519 17.0045 14.7969 16.8594C14.942 16.7144 15.0234 16.5176 15.0234 16.3125C15.0234 16.1074 14.942 15.9106 14.7969 15.7656C14.6519 15.6205 14.4551 15.5391 14.25 15.5391H12.9609V10.6875C12.9609 10.4824 12.8795 10.2856 12.7344 10.1406C12.5894 9.99555 12.3926 9.91406 12.1875 9.91406H10.6875C10.4824 9.91406 10.2856 9.99555 10.1406 10.1406C9.99555 10.2856 9.91406 10.4824 9.91406 10.6875C9.91406 10.8926 9.99555 11.0894 10.1406 11.2344C10.2856 11.3795 10.4824 11.4609 10.6875 11.4609H11.4141V15.5391H10.125C9.91987 15.5391 9.72315 15.6205 9.5781 15.7656C9.43305 15.9106 9.35156 16.1074 9.35156 16.3125C9.35156 16.5176 9.43305 16.7144 9.5781 16.8594Z" fill="#DB7609" stroke="#DB7609" stroke-width="0.046875"/>
</svg>
