<svg width="16" height="17" viewBox="0 0 16 17" fill="none" xmlns="http://www.w3.org/2000/svg">
	<path d="M12 7.5V13.25C12 13.4142 11.9677 13.5767 11.9048 13.7284C11.842 13.88 11.75 14.0178 11.6339 14.1339C11.5178 14.25 11.38 14.342 11.2284 14.4048C11.0767 14.4677 10.9142 14.5 10.75 14.5H3.25C2.91848 14.5 2.60054 14.3683 2.36612 14.1339C2.1317 13.8995 2 13.5815 2 13.25V5.75C2 5.41848 2.1317 5.10054 2.36612 4.86612C2.60054 4.6317 2.91848 4.5 3.25 4.5H8.48375" stroke="#232321" stroke-width="1.5" stroke-linecap="round" stroke-linejoin="round" />
	<path d="M14.3558 2.17987L14.3558 2.17983C14.3122 2.132 14.2595 2.09349 14.2006 2.06663C14.1418 2.03977 14.0781 2.02512 14.0135 2.02356C13.9488 2.022 13.8845 2.03357 13.8244 2.05756C13.7644 2.08155 13.7098 2.11747 13.664 2.16315L13.664 2.16317L13.2775 2.54781C13.235 2.5903 13.2112 2.6479 13.2112 2.70796C13.2112 2.76802 13.235 2.82562 13.2775 2.8681C13.2775 2.8681 13.2775 2.86811 13.2775 2.86811L13.6318 3.22184L13.6319 3.2219C13.653 3.24305 13.678 3.25983 13.7055 3.27128C13.7331 3.28273 13.7626 3.28863 13.7925 3.28863C13.8223 3.28863 13.8519 3.28273 13.8794 3.27128C13.907 3.25983 13.932 3.24305 13.9531 3.2219L13.9531 3.22182L14.33 2.84685L14.33 2.84682M14.3558 2.17987L14.3731 2.16406C14.555 2.36312 14.5372 2.67312 14.3465 2.86343L14.33 2.84682M14.3558 2.17987C14.5286 2.369 14.5124 2.66471 14.33 2.84682M14.3558 2.17987L14.33 2.84682M6.85466 8.96033L6.85464 8.96035C6.82329 8.99158 6.8005 9.03035 6.78847 9.07293L6.78816 9.07403L6.78813 9.07402L6.52734 9.85079C6.52239 9.86772 6.52207 9.88567 6.52641 9.90277C6.53079 9.92 6.53973 9.93573 6.5523 9.9483C6.56487 9.96087 6.5806 9.96981 6.59783 9.97418C6.61493 9.97853 6.63288 9.97821 6.64981 9.97326L7.42595 9.71247L7.42703 9.7121L7.42704 9.71213C7.46963 9.7001 7.5084 9.67731 7.53962 9.64596L7.53964 9.64594L13.1708 4.00413C13.1708 4.00412 13.1708 4.00411 13.1709 4.0041C13.2186 3.95583 13.2454 3.89069 13.2454 3.82281C13.2454 3.75493 13.2186 3.68979 13.1709 3.64153L6.85466 8.96033ZM6.85466 8.96033L12.4959 3.32909C12.5442 3.2809 12.6097 3.25383 12.6779 3.25383C12.7462 3.25383 12.8117 3.2809 12.86 3.32909L13.1708 3.64148L6.85466 8.96033Z" fill="#232321" stroke="#232321" stroke-width="0.046875" />
</svg>
