<svg width="14" height="14" fill="none" xmlns="http://www.w3.org/2000/svg">
	<path d="M4.00226 5L0.54922 6.76C0.209904 6.93 -0.00965331 7.28 0.000326567 7.66V18C0.000326567 18.51 0.379562 18.93 0.878556 18.99L8.90238 19.99C8.9423 20 8.98221 20 9.02213 20C9.45127 20 9.8305 19.73 9.97022 19.32L11.7367 14H15.0101C16.3074 14 17.4152 13.16 17.8244 12H18.503C19.3313 12 20 11.33 20 10.5V5H4.00226ZM5 10H15.0101C15.2795 10 15.519 10.1 15.7186 10.31C15.9082 10.49 16.008 10.73 16.008 11C16.008 11.55 15.559 12 15.0101 12H11.0181C10.589 12 10.2097 12.28 10.07 12.68L8.33352 17.91L1.9963 17.12L1.9963 8.27L4.00226 7.27L4.00201 9.01C4.01199 9.56 4.45111 10 5 10ZM18.503 1H5.49924C4.67091 1 4.00226 1.67 4.00226 2.5V3H20V2.5C20 1.67 19.3313 1 18.503 1Z" fill="#5C5F62">
	</path>
</svg>
