<svg xmlns="http://www.w3.org/2000/svg" xmlns:vectornator="http://vectornator.io"
    xmlns:xlink="http://www.w3.org/1999/xlink" stroke-miterlimit="10" style="" version="1.1" viewBox="0 0 48 60"
    xml:space="preserve" x="0px" y="0px" fill-rule="nonzero" clip-rule="evenodd" stroke-linecap="round"
    stroke-linejoin="round">
    <g vectornator:layerName="Layer 1">
        <path
            d="M22.4688 2C21.3642 2 20.4688 2.89543 20.4688 4L20.4688 8.40625C18.8731 8.76747 17.4065 9.42006 16.0312 10.2188L12.9375 7.125C12.1565 6.34395 10.906 6.34395 10.125 7.125L7.46875 9.78125C6.6877 10.5623 6.6877 11.8127 7.46875 12.5938L10.4375 15.5625C9.56846 16.9535 8.94124 18.4911 8.53125 20.125L4.34375 20.125C3.23918 20.125 2.34375 21.0204 2.34375 22.125L2.34375 25.875C2.34375 26.9796 3.23918 27.875 4.34375 27.875L8.53125 27.875C8.94124 29.5089 9.56845 31.0465 10.4375 32.4375L7.46875 35.4062C6.6877 36.1873 6.6877 37.4377 7.46875 38.2188L10.125 40.875C10.906 41.6561 12.1565 41.656 12.9375 40.875L16.0312 37.7812C17.4065 38.5799 18.8731 39.2325 20.4688 39.5938L20.4688 44C20.4687 45.1046 21.3642 46 22.4688 46L26.2188 46C27.3233 46 28.2188 45.1046 28.2188 44L28.2188 39.375C29.7232 38.9612 31.1453 38.3698 32.4375 37.5625L35.75 40.875C36.531 41.6561 37.8127 41.656 38.5938 40.875L41.25 38.2188C42.0311 37.4377 42.031 36.1873 41.25 35.4062L37.8125 31.9688C38.5474 30.7006 39.103 29.3327 39.4688 27.875L44.3438 27.875C45.4483 27.875 46.3438 26.9796 46.3438 25.875L46.3438 22.125C46.3437 21.0204 45.4483 20.125 44.3438 20.125L39.4688 20.125C39.103 18.6673 38.5474 17.2994 37.8125 16.0312L41.25 12.5938C42.0311 11.8127 42.031 10.5623 41.25 9.78125L38.5938 7.125C37.8127 6.34395 36.531 6.34395 35.75 7.125L32.4375 10.4375C31.1453 9.63021 29.7232 9.03882 28.2188 8.625L28.2188 4C28.2187 2.89543 27.3233 2 26.2188 2L22.4688 2ZM24 16C28.4183 16 32 19.5817 32 24C32 28.4183 28.4183 32 24 32C19.5817 32 16 28.4183 16 24C16 19.5817 19.5817 16 24 16Z"
            fill-rule="nonzero" opacity="1" stroke="none" vectornator:layerName="Curve 1" />
    </g><text x="0" y="63" font-size="5px" font-weight="bold"
        font-family="'Helvetica Neue', Helvetica, Arial-Unicode, Arial, Sans-serif">Created by Syuhada
        Bikhoiri</text><text x="0" y="68" font-size="5px" font-weight="bold"
        font-family="'Helvetica Neue', Helvetica, Arial-Unicode, Arial, Sans-serif">from the Noun Project</text>
</svg>