<svg width="14" height="14" fill="none" xmlns="http://www.w3.org/2000/svg">
	<path d="M1.79109 2.2534L1.19406 5.83559C1.09247 6.44512 1.56251 6.99999 2.18045 6.99999H3.07294C3.6411 6.99999 4.16049 6.67898 4.41458 6.17081L4.99999 4.99999L5.5854 6.17081C5.83949 6.67898 6.35889 6.99999 6.92704 6.99999H8.07294C8.6411 6.99999 9.16049 6.67898 9.41458 6.17081L9.99999 4.99999L10.5854 6.17081C10.8395 6.67898 11.3589 6.99999 11.927 6.99999H13.0729C13.6411 6.99999 14.1605 6.67898 14.4146 6.17081L15 4.99999L15.5854 6.17081C15.8395 6.67898 16.3589 6.99999 16.927 6.99999H17.8195C18.4375 6.99999 18.9075 6.44512 18.8059 5.83559L18.2089 2.2534C18.0883 1.53012 17.4626 1 16.7293 1H3.27068C2.53742 1 1.91164 1.53012 1.79109 2.2534Z" fill="#5C5F62">
	</path>
	<path d="M3.99999 18.5C3.99999 17.6716 4.67157 17 5.49999 17H7.99999V14H12V17H14.5C15.3284 17 16 17.6716 16 18.5V19H3.99999V18.5Z" fill="#5C5F62">
	</path>
	<path d="M1.99999 9H3.99999V13H16V9H18V13.5C18 14.3284 17.3284 15 16.5 15H3.49999C2.67157 15 1.99999 14.3284 1.99999 13.5V9Z" fill="#5C5F62">
	</path>
</svg>
