<svg xmlns="http://www.w3.org/2000/svg" xmlns:xlink="http://www.w3.org/1999/xlink" version="1.1" x="0px" y="0px"
    viewBox="0 0 32 40" style="enable-background:new 0 0 32 32;" xml:space="preserve">
    <g>
        <path
            d="M10.3535156,14.0473633c2.5742188,0,4.6689453-2.0942383,4.6689453-4.668457   c0-2.5737305-2.0947266-4.6679688-4.6689453-4.6679688S5.6855469,6.8051758,5.6855469,9.3789062   C5.6855469,11.953125,7.7792969,14.0473633,10.3535156,14.0473633z" />
        <path
            d="M18.7080078,23.9013672c0-4.605957-3.7480469-8.3535156-8.3544922-8.3535156S2,19.2954102,2,23.9013672v3.3828125   h16.7080078V23.9013672z" />
        <path
            d="M21.6500244,14.0499878c2.5699463,0,4.6599731-2.0999756,4.6599731-4.6699829S24.2199707,4.710022,21.6500244,4.710022   c-2.5825195-0.0095825-4.6888428,2.1383667-4.6700439,4.6699829C16.9793701,9.5432129,16.9916382,9.7069702,17,9.8599854   C17.25,12.210022,19.2299805,14.0499878,21.6500244,14.0499878z" />
        <path
            d="M21.6500244,15.5499878c-1.4500122,0-2.8099976,0.3699951-4,1.0200195   c1.8899536,1.8699951,3.0599976,4.4699707,3.0599976,7.3300171v3.3800049H30v-3.3800049   C30,19.2999878,26.25,15.5499878,21.6500244,15.5499878z" />
    </g><text x="0" y="47" fill="#000000" font-size="5px" font-weight="bold"
        font-family="'Helvetica Neue', Helvetica, Arial-Unicode, Arial, Sans-serif">Created by Riyan Resdian</text><text
        x="0" y="52" fill="#000000" font-size="5px" font-weight="bold"
        font-family="'Helvetica Neue', Helvetica, Arial-Unicode, Arial, Sans-serif">from the Noun Project</text>
</svg>